<svg width="1242" height="1235" viewBox="0 0 1242 1235" fill="none" xmlns="http://www.w3.org/2000/svg">
<path d="M311.222 1040.29C499.968 1299.97 712.758 343.015 931.559 1040.29" stroke="#9E3D3D" stroke-width="2.40441"/>
<path d="M510.166 1129.9C788.214 1290.36 593.379 329.588 1076.87 877.589" stroke="#9E3D3D" stroke-width="2.40441"/>
<path d="M728.356 1130.85C1047.63 1164.34 478.857 365.876 1143.44 669.845" stroke="#9E3D3D" stroke-width="2.40441"/>
<path d="M928.068 1042.96C1233.36 943.699 388.999 445.609 1119.76 452.987" stroke="#9E3D3D" stroke-width="2.40441"/>
<path d="M1074.77 881.447C1313.29 666.591 339.338 554.996 1009.93 264.508" stroke="#9E3D3D" stroke-width="2.40441"/>
<path d="M1143.09 674.226C1273.6 380.929 338.462 675.125 832.922 136.998" stroke="#9E3D3D" stroke-width="2.40441"/>
<path d="M1121.22 457.132C1121.16 136.108 386.522 785.225 619.358 92.507" stroke="#9E3D3D" stroke-width="2.40441"/>
<path d="M1012.94 267.7C882.312 -25.5439 475.21 866.257 406.162 138.725" stroke="#9E3D3D" stroke-width="2.40441"/>
<path d="M836.978 138.688C598.367 -76.0707 589.189 904.213 230.197 267.664" stroke="#9E3D3D" stroke-width="2.40441"/>
<path d="M623.751 92.3996C318.419 -6.7407 708.752 892.526 121.888 457.025" stroke="#9E3D3D" stroke-width="2.40441"/>
<path d="M410.133 136.841C90.8735 170.462 813.225 833.221 99.964 674.069" stroke="#9E3D3D" stroke-width="2.40441"/>
<path d="M233.058 264.327C-44.9249 424.895 884.545 736.549 168.215 881.266" stroke="#9E3D3D" stroke-width="2.40441"/>
<path d="M123.145 452.813C-65.4962 712.565 910.377 619.225 314.839 1042.79" stroke="#9E3D3D" stroke-width="2.40441"/>
<path d="M99.398 669.711C32.7168 983.734 886.257 501.54 514.485 1130.71" stroke="#9E3D3D" stroke-width="2.40441"/>
<path d="M165.926 877.515C232.734 1191.51 816.356 403.839 732.632 1129.83" stroke="#9E3D3D" stroke-width="2.40441"/>
</svg>
